<?xml version="1.0" encoding="UTF-8"?>
<svg version="1.0" viewBox="0 0 354.33 230.31" xmlns="http://www.w3.org/2000/svg" xmlns:cc="http://creativecommons.org/ns#" xmlns:dc="http://purl.org/dc/elements/1.1/" xmlns:rdf="http://www.w3.org/1999/02/22-rdf-syntax-ns#">
  <metadata>
    <rdf:RDF>
      <cc:Work rdf:about="">
        <dc:format>image/svg+xml</dc:format>
        <dc:type rdf:resource="http://purl.org/dc/dcmitype/StillImage"/>
      </cc:Work>
    </rdf:RDF>
  </metadata>
  <g transform="matrix(.29566 0 0 .29566 -2.6093 -185.98)" fill-rule="evenodd">
    <path d="m318.5 932.73c-26.778-3.7971-57.005-14.354-44.336-22.852 10.463-7.0173 44.087-10.805 64.844-10.742 15.698 0.0475 36.36 1.559 51.367 8.9844 7.4583 3.6903 12.827 9.4281 10.547 24.219 78.732 1.4385 2.739 0.08949 83.984 1.5625 4.4547-9.6517 5.0758-24.684 1.1719-33.203-6.337-13.829-25.911-25.241-41.211-30.078-38.01-12.018-89.322-18.143-134.18-17.578-30.875 0.3907-67.339 2.8784-96.875 11.133-20.635 5.7669-48.072 17.794-61.719 34.18-7.2375 8.6906-11.985 26.012-7.2266 37.891 8.0734 20.155 36.747 28.636 56.055 34.18 29.557 8.4867 70.731 12.632 100.78 16.602 28.539 3.7697 90.01 5.8027 70.703 24.414-18.694 18.021-48.011 20.67-76.172 23.633-20.723 2.18-54.29 3.218-69.922-6.6407-14.68-9.2587-14.592-19.525-14.648-30.664-137 8.2597-6.3327-0.05209-140.82 8.3984-2.8519 9.2139-2.406 17.618-0.97657 26.172 3.2435 19.41 26.333 38.092 42.969 42.578 36.433 9.8246 80.21 10.477 106.64 11.133 29.95 0.7376 71.427-4.949 100.78-10.938 32.914-6.7146 70.403-15.783 97.656-29.883 29.804-15.419 47.128-36.21 46.289-59.375-0.67273-18.385-27.02-29.372-41.797-33.789-31.438-9.3981-72.545-14.889-103.91-19.336zm210.16-7.9102c7.5775-20.468 0.54454-3.3796 8.4961-22.754 67.98-16.17 4.3922-1.2171 72.168-16.602-15.091 33.666-4.4285 10.515-19.531 43.164 26.806 0.56703 5.3241 0.01052 31.055 0.78125-12.052 28.37-1.0334 2.6407-12.891 30.469-29.885 0.50509-5.2928 0.36548-32.91 0.58593-11.648 30.818-20.531 49.491-23.145 56.494-2.7974 7.4947 16.929 1.8157 31.152-2.0996-8.1816 30.365-0.97199 2.7938-9.082 31.543-23.904 6.807-102.84 23.298-93.066-12.988 3.8136-14.156 15.358-33.435 32.031-73.926-21.547-0.34921-2.3277-0.0187-26.025-0.43945 13.08-30.953 2.5215-5.9463 14.697-34.668 24.153 0.65643 6.2983 0.28373 27.051 0.43945zm66.992 94.434c0.75978-6.3587 22.316-55.207 36.328-88.379 36.39 0.85924 2.6313 0.02504 48.828 1.0742-12.608 31.046-18.439 45.166-29.004 69.336-10.291 23.544 33.603 14.257 40.918-2.4414 10.103-23.063 15.005-34.865 28.223-64.062 36.704 0.86236 2.1599 0.15211 38.477 0.97656-16.552 41.498-26.735 68.958-40.039 99.219-36.135 1.3267-2.0106 0.0697-37.793 1.3672 0.99123-4.9301 0.2645-1.5073 1.1719-6.9336-5.9017 2.6944-15.033 9.2783-33.018 13.126-22.662 4.8475-57.383 4.4616-54.091-23.282zm194.87-116.11c65.652 8.004 39.905 4.3728 68.701 8.4961 7.7244 1.1061 14.473 4.2033 17.969 9.9609 4.3762 7.2086 2.5903 12.074 1.8555 17.578-0.74778 5.6005-4.0246 13.144-7.4219 17.676-3.3393 4.4547-8.1904 8.8722-13.086 11.523-4.0765 2.2077-10.374 4.0862-16.406 5.1758 6.179 6.4305 10.042 19.034 14.844 44.922-29.994 1.6814-1.3426 0.0658-31.934 1.8555-5.6916-13.661-10.13-41.655-20.02-42.188-4.2631-0.22949-2.5508-0.26884-11.914-0.29298-18.825 46.102-1.0092 1.9015-19.824 48.242-33.201 2.5357-1.619 0.2101-35.352 2.832 26.481-63.417 11.781-27.944 52.588-125.78zm21.832 28.398c28.629 1.5863 17.011 0.81421 30.252 1.7439 3.3786 0.23722 5.8831 0.34732 7.2497 2.3106 1.8107 2.6012 0.82092 6.5453 0.32084 8.2652-0.5214 1.7933-1.9503 3.3297-3.4318 5.2691-1.2374 1.6199-3.7992 3.5438-6.0971 4.6663-2.0279 0.99059-34.406 0.33181-37.037 0.6807 8.191-21.582 0.66266-2.7507 8.7437-22.936zm62.592 33.223c18.174 3.0152 0.76122 0.20407 20.02 3.3691 2.1694-2.5466 5.337-6.1245 8.5938-7.7637 2.7637-1.3911 6.9265-1.0589 8.8867 0.87892 1.544 1.5264 2.1354 5.2288-4.3945 6.9336-13.125 3.4265-22.119 3.4529-32.617 10.156-7.0821 4.5219-13.762 10.683-16.211 19.922-0.88909 3.3535-0.98908 10.879 0.39064 14.063 2.7438 6.3305 11.494 7.3328 17.09 6.5429 4.6447-0.6557 9.2212-2.2256 13.574-4.1015 2.5296-1.0902 5.0956-3.1667 7.5684-3.8086-0.06429 3.5366 0.08867 0.8817-0.04883 4.0039 19.168-0.9056 1.5227-0.0287 20.947-1.0254 0.22197-10.073-0.27256-10.738 1.0254-14.307 5.0543-13.895 10.11-22.657 13.965-34.668 1.7251-5.3757 2.9206-13.739-3.2227-18.555-4.2953-3.3671-10.169-4.4366-17.48-4.4922-4.9067-0.03785-10.318 0.03373-16.016 2.5391-7.6987 3.3854-15.898 10.208-22.07 20.313zm30.884 20.557c-4.6447 0.47295-15.777 3.6163-19.409 6.7871-6.5352 5.7051-1.276 13.36 7.666 8.3008 4.8023-2.717 12.02-9.2397 11.743-15.088z" fill="#194b50"/>
    <path d="m851.05 794.48c-6.1087 12.199-1.3487 2.1711-7.6253 15.239 19.62-13.535 42.344-29.084 58.644-40.394 2.9774-11.914 0.56391-2.0333 3.7665-15.236-17.351 9.8844-38.16 25.96-54.785 40.391z" fill="#277f74"/>
    <path d="m742.14 1191.6c295.41-224.85 435.35-578.29 169.29-429.34 4.0642-12.184 0.46504-1.0624 4.9316-14.795 180.14-116.34 240.17-78.172 229.89 19.087-17.264 163.85-268.95 449.03-453.23 539.8 48.242-112.55 1.5143-3.4724 49.123-114.75zm66.2-362.58c13.178-12.073 16.955-14.684 34.389-27.483-5.6904 11.982-0.55615 1.2585-6.0767 12.706-9.6234 8.5637-19.574 15.835-36.184 29.417 7.2251-13.508 0.56782-1.1776 7.8721-14.639zm-301.74 317.23c-9.6343 7.3125-0.90587 0.7075-10.688 7.9062-2.7269 3.2922-5.2866 6.36-7.9062 9.5l16-13.375c0.86461-1.3414 1.7393-2.6806 2.5938-4.0312zm-5.5312 8.5625-22.531 20.188c-5.804 6.9052-11.171 13.202-16.406 19.375l34.438-32.781c1.5104-2.2447 3.0062-4.5068 4.5-6.7812zm-6.9375 10.375-40.25 38.969c-1.8867 2.2229-3.6066 4.2774-5.4062 6.4063l40-37.125c1.8934-2.72 3.7672-5.4734 5.6562-8.25zm-8.6562 12.5-42.344 39.188c-3.272 3.887-6.403 7.6202-9.4062 11.219l48.281-45.469c1.1492-1.631 2.3127-3.2891 3.4688-4.9375zm-7.75 11-48.094 44.281c-5.6161 6.7902-10.685 13.054-15.094 18.781l56.75-53.938c2.0939-2.9654 4.2792-6.0751 6.4375-9.125zm-13.25 18.875-52.938 48.156c-2.1367 2.8491-4.1632 5.6102-6 8.25l51.625-45.75c2.3075-3.463 4.7923-7.0257 7.3125-10.656zm-11.031 16.375-50.094 43.219c-0.87919 1.3137-1.7305 2.6392-2.5312 3.9063-1.2695 2.0089-2.4299 3.9136-3.5312 5.7812l50.031-43c1.876-3.2008 3.9391-6.5092 6.125-9.9062zm-8.7812 14.594-48.906 40.969c-0.00674 0.012-0.02452 0.0192-0.03125 0.0312-1.5037 2.6879-2.8032 5.2608-3.875 7.7813l47.594-38.25c1.4437-3.3546 3.2068-6.8659 5.2188-10.531zm-6.75 14.375-47.094 36.969c-1.3756 3.7599-2.1881 7.4551-2.375 11.281l46.469-35.188c0.19085-3.9654 1.2491-8.3369 3-13.062zm-3 15.406-46.5 35.25c0.00306 0.1463-0.00491 0.2906 0 0.4375 0.12162 3.6372 0.83943 7.1369 2.0625 10.5l47.375-35.875c-0.92038-1.768-1.6822-3.6824-2.25-5.75-0.39729-1.4466-0.61826-2.9699-0.6875-4.5625zm3.8438 11.938-47.562 36.094c1.7836 4.1757 4.405 8.093 7.7188 11.781l48.75-39c-3.697-2.3565-6.7033-5.2828-8.9062-8.875zm12.656 10.969-50.156 39.375c4.9204 4.8426 11.087 9.2125 18.281 13.031l55.188-46.875c-9.1889-0.7586-17.038-2.5131-23.312-5.5313zm260.41-76.281c-54.681 31.853-104.75 62.888-150.72 73.438l-56.781 73.188c53.382-0.309 112.54-19.07 152.19-36.656 55.203-110.53 1.0201-0.7607 55.312-109.97z" fill="#194b50"/>
    <path d="m553.32 1290c-0.67389 0.1209-1.3592 0.2637-2.0312 0.375-27.336 4.5277-51.489 7.4488-70.656 6.75l-54.438 49.812c18.403 8.2677 42.011 13.363 67.344 14.469h0.03125l59.75-71.406z" fill="#277f74"/>
  </g>
</svg>
